<svg xmlns="http://www.w3.org/2000/svg" xmlns:xlink="http://www.w3.org/1999/xlink" width="1920" height="2945" viewBox="0 0 1920 2945"><defs><filter id="a" x="435" y="217" width="1000" height="2581" filterUnits="userSpaceOnUse"><feOffset dx="6" dy="3" input="SourceAlpha"/><feGaussianBlur stdDeviation="3" result="b"/><feFlood flood-color="#00408b"/><feComposite operator="in" in2="b"/><feComposite in="SourceGraphic"/></filter><clipPath id="d"><rect width="1920" height="2945"/></clipPath></defs><g id="c" clip-path="url(#d)"><rect width="1920" height="2945" fill="#253967"/><rect width="1920" height="74"/><rect width="72" height="75"/><rect width="41" height="8" transform="translate(16 30)" fill="#fff"/><rect width="41" height="8" transform="translate(16 17)" fill="#fff"/><rect width="41" height="8" transform="translate(16 43.324)" fill="#fff"/><text transform="translate(1900 50)" fill="#fff" font-size="30" font-family="SegoeUI, Segoe UI" letter-spacing="0.05em"><tspan x="-87.709" y="0">About</tspan></text><rect width="1012" height="2587" rx="30" transform="translate(423 211)" fill="#fff"/><g transform="matrix(1, 0, 0, 1, 0, 0)" filter="url(#a)"><g transform="translate(438 223)" fill="none" stroke="#707070" stroke-width="1"><rect width="982" height="2563" rx="30" stroke="none"/><rect x="0.5" y="0.5" width="981" height="2562" rx="29.5" fill="none"/></g></g><text transform="translate(929 291)" font-size="48" font-family="SegoeUI, Segoe UI" letter-spacing="0.05em"><tspan x="-70.167" y="0">About</tspan></text><text transform="translate(493 376)" fill="#707070" font-size="20" font-family="SegoeUI, Segoe UI"><tspan x="0" y="22">Lorem ipsum dolor sit amet, consectetur adipiscing elit, sed do eiusmod tempor incididunt ut </tspan><tspan x="0" y="49">labore et dolore magna aliqua. Magna fermentum iaculis eu non diam phasellus vestibulum lorem </tspan><tspan x="0" y="76">sed. Aliquam nulla facilisi cras fermentum. Et ultrices neque ornare aenean. Dolor sit amet </tspan><tspan x="0" y="103">consectetur adipiscing elit duis tristique sollicitudin nibh. Viverra nam libero justo laoreet sit amet </tspan><tspan x="0" y="130">cursus sit amet. Amet consectetur adipiscing elit ut. Mi sit amet mauris commodo quis imperdiet </tspan><tspan x="0" y="157">massa. Felis imperdiet proin fermentum leo vel. Velit ut tortor pretium viverra suspendisse potenti. </tspan><tspan x="0" y="184">Ipsum consequat nisl vel pretium lectus quam id. Senectus et netus et malesuada fames ac turpis </tspan><tspan x="0" y="211">egestas sed. Turpis massa sed elementum tempus egestas.</tspan><tspan x="0" y="238"></tspan><tspan x="0" y="265">Suspendisse interdum consectetur libero id. Dolor sit amet consectetur adipiscing elit ut aliquam </tspan><tspan x="0" y="292">purus sit. Tellus integer feugiat scelerisque varius. Hac habitasse platea dictumst quisque sagittis </tspan><tspan x="0" y="319">purus. Pretium aenean pharetra magna ac placerat vestibulum. Vestibulum rhoncus est </tspan><tspan x="0" y="346">pellentesque elit ullamcorper dignissim. Euismod in pellentesque massa placerat duis ultricies lacus </tspan><tspan x="0" y="373">sed. Lobortis scelerisque fermentum dui faucibus in. Tristique risus nec feugiat in fermentum </tspan><tspan x="0" y="400">posuere urna nec. Vel quam elementum pulvinar etiam. Eget duis at tellus at urna condimentum </tspan><tspan x="0" y="427">mattis pellentesque. Vitae et leo duis ut diam quam nulla. Non pulvinar neque laoreet suspendisse </tspan><tspan x="0" y="454">interdum consectetur libero id. Diam maecenas sed enim ut sem viverra aliquet eget.</tspan><tspan x="0" y="481"></tspan><tspan x="0" y="508">Eget est lorem ipsum dolor sit amet. Amet dictum sit amet justo. Maecenas ultricies mi eget mauris </tspan><tspan x="0" y="535">pharetra et ultrices neque ornare. Morbi tincidunt ornare massa eget egestas purus viverra. </tspan><tspan x="0" y="562">Tristique sollicitudin nibh sit amet commodo nulla. Vestibulum lorem sed risus ultricies tristique </tspan><tspan x="0" y="589">nulla aliquet. Id venenatis a condimentum vitae. Gravida arcu ac tortor dignissim convallis. Cursus </tspan><tspan x="0" y="616">risus at ultrices mi tempus imperdiet nulla. Amet consectetur adipiscing elit ut aliquam purus sit. </tspan><tspan x="0" y="643">Cras fermentum odio eu feugiat pretium. Mi eget mauris pharetra et ultrices neque. Augue eget </tspan><tspan x="0" y="670">arcu dictum varius duis at.</tspan><tspan x="0" y="697"></tspan><tspan x="0" y="724">Nulla at volutpat diam ut venenatis. Dignissim diam quis enim lobortis scelerisque fermentum. </tspan><tspan x="0" y="751">Sollicitudin nibh sit amet commodo. Tristique senectus et netus et malesuada fames ac. Egestas </tspan><tspan x="0" y="778">erat imperdiet sed euismod nisi porta lorem. Id diam vel quam elementum pulvinar etiam non </tspan><tspan x="0" y="805">quam. Imperdiet nulla malesuada pellentesque elit. Amet nisl suscipit adipiscing bibendum est </tspan><tspan x="0" y="832">ultricies integer. Elit pellentesque habitant morbi tristique senectus et netus. Non diam phasellus </tspan><tspan x="0" y="859">vestibulum lorem sed risus ultricies tristique.</tspan><tspan x="0" y="886"></tspan><tspan x="0" y="913">Euismod quis viverra nibh cras. Sit amet cursus sit amet dictum sit amet. Malesuada proin libero </tspan><tspan x="0" y="940">nunc consequat interdum varius. Blandit cursus risus at ultrices mi tempus imperdiet. Turpis in eu </tspan><tspan x="0" y="967">mi bibendum neque egestas congue. Ac turpis egestas integer eget aliquet nibh praesent. Placerat </tspan><tspan x="0" y="994">orci nulla pellentesque dignissim. Montes nascetur ridiculus mus mauris vitae ultricies leo integer </tspan><tspan x="0" y="1021">malesuada. Integer vitae justo eget magna fermentum iaculis eu non diam. Scelerisque eleifend </tspan><tspan x="0" y="1048">donec pretium vulputate sapien nec. Scelerisque viverra mauris in aliquam sem fringilla ut morbi </tspan><tspan x="0" y="1075">tincidunt. Consequat ac felis donec et odio pellentesque diam. Euismod elementum nisi quis </tspan><tspan x="0" y="1102">eleifend quam adipiscing. Ac turpis egestas integer eget aliquet nibh praesent tristique magna. </tspan><tspan x="0" y="1129">Netus et malesuada fames ac turpis egestas. Id donec ultrices tincidunt arcu.</tspan><tspan x="0" y="1156"></tspan><tspan x="0" y="1183">Faucibus turpis in eu mi bibendum neque. Turpis massa sed elementum tempus egestas sed sed </tspan><tspan x="0" y="1210">risus pretium. Sodales neque sodales ut etiam sit. Eget felis eget nunc lobortis mattis aliquam </tspan><tspan x="0" y="1237">faucibus. Nunc sed blandit libero volutpat. Sodales ut eu sem integer. Gravida dictum fusce ut </tspan><tspan x="0" y="1264">placerat orci. Ac odio tempor orci dapibus ultrices in iaculis nunc. In eu mi bibendum neque </tspan><tspan x="0" y="1291">egestas congue. Tellus pellentesque eu tincidunt tortor aliquam. Penatibus et magnis dis parturient </tspan><tspan x="0" y="1318">montes. Gravida arcu ac tortor dignissim convallis aenean et. Phasellus faucibus scelerisque </tspan><tspan x="0" y="1345">eleifend donec pretium vulputate sapien nec. Egestas dui id ornare arcu odio ut sem. Faucibus in </tspan><tspan x="0" y="1372">ornare quam viverra orci sagittis eu volutpat.</tspan><tspan x="0" y="1399"></tspan><tspan x="0" y="1426">Faucibus pulvinar elementum integer enim neque. Urna cursus eget nunc scelerisque viverra </tspan><tspan x="0" y="1453">mauris. Viverra justo nec ultrices dui sapien eget mi proin. Vulputate ut pharetra sit amet aliquam </tspan><tspan x="0" y="1480">id diam maecenas. Sed cras ornare arcu dui. Malesuada proin libero nunc consequat interdum </tspan><tspan x="0" y="1507">varius sit amet. Adipiscing tristique risus nec feugiat in. Non blandit massa enim nec dui nunc </tspan><tspan x="0" y="1534">mattis enim. Senectus et netus et malesuada. Ut faucibus pulvinar elementum integer enim neque </tspan><tspan x="0" y="1561">volutpat ac. Nullam ac tortor vitae purus faucibus ornare suspendisse.</tspan><tspan x="0" y="1588"></tspan><tspan x="0" y="1615">Vulputate mi sit amet mauris commodo quis imperdiet massa. Sed odio morbi quis commodo. Ut </tspan><tspan x="0" y="1642">diam quam nulla porttitor massa id neque. Consequat id porta nibh venenatis cras sed felis eget. </tspan><tspan x="0" y="1669">Quis varius quam quisque id diam vel quam elementum. Et ultrices neque ornare aenean euismod. </tspan><tspan x="0" y="1696">Platea dictumst quisque sagittis purus sit amet volutpat consequat. Enim sit amet venenatis urna. </tspan><tspan x="0" y="1723">Nisi vitae suscipit tellus mauris a diam maecenas sed enim. Eget velit aliquet sagittis id consectetur </tspan><tspan x="0" y="1750">purus. Commodo quis imperdiet massa tincidunt nunc pulvinar. Et odio pellentesque diam </tspan><tspan x="0" y="1777">volutpat commodo sed egestas. Enim ut tellus elementum sagittis vitae et leo duis. Nulla at </tspan><tspan x="0" y="1804">volutpat diam ut venenatis tellus in. Quis hendrerit dolor magna eget est lorem. Ut eu sem integer </tspan><tspan x="0" y="1831">vitae justo eget. Vehicula ipsum a arcu cursus vitae congue mauris.</tspan><tspan x="0" y="1858"></tspan><tspan x="0" y="1885">Vel pharetra vel turpis nunc eget. Neque vitae tempus quam pellentesque nec nam aliquam sem. A </tspan><tspan x="0" y="1912">cras semper auctor neque. At augue eget arcu dictum varius duis at consectetur lorem. Integer </tspan><tspan x="0" y="1939">eget aliquet nibh praesent tristique magna sit amet purus. Aenean euismod elementum nisi quis </tspan><tspan x="0" y="1966">eleifend quam. Tincidunt vitae semper quis lectus nulla at volutpat. Tortor at risus viverra </tspan><tspan x="0" y="1993">adipiscing at. Duis at tellus at urna condimentum mattis. Consectetur adipiscing elit pellentesque </tspan><tspan x="0" y="2020">habitant. Tincidunt praesent semper feugiat nibh sed pulvinar proin gravida. Amet massa vitae </tspan><tspan x="0" y="2047">tortor condimentum lacinia quis vel eros donec. Nunc vel risus commodo viverra maecenas.</tspan><tspan x="0" y="2074"></tspan><tspan x="0" y="2101">Neque vitae tempus quam pellentesque nec. Tincidunt id aliquet risus feugiat in ante. Odio ut sem </tspan><tspan x="0" y="2128">nulla pharetra diam sit. Accumsan lacus vel facilisis volutpat est. Morbi tristique senectus et netus </tspan><tspan x="0" y="2155">et malesuada fames ac turpis. Risus sed vulputate odio ut enim blandit volutpat. In vitae turpis </tspan><tspan x="0" y="2182">massa sed elementum. Tempor id eu nisl nunc mi ipsum faucibus. Elit pellentesque habitant morbi </tspan><tspan x="0" y="2209">tristique senectus et. Id aliquet risus feugiat in ante metus dictum at tempor. Scelerisque eleifend </tspan><tspan x="0" y="2236">donec pretium vulputate sapien. Aliquam id diam maecenas ultricies mi eget mauris. Dictum sit </tspan><tspan x="0" y="2263">amet justo donec enim diam vulputate ut pharetra. Erat velit scelerisque in dictum non consectetur </tspan><tspan x="0" y="2290">a erat nam. Tellus molestie nunc non blandit massa enim nec dui nunc. Convallis tellus id interdum </tspan><tspan x="0" y="2317">velit laoreet id donec ultrices tincidunt.</tspan></text><g transform="translate(772 16.792)"><g transform="translate(0 0)"><path d="M66.868,39.059,65.632,36.8H40.964l1.279,2.237H27.227L25.948,36.8H19.754l-3.907-7.24H21.81L10.334,9.477H3.827L0,2.236H6.2L4.918,0,20.129.352l1.077,1.884H62.458l3.827,7.24H25.345l11.48,20.082H61.669l-3.507-6.408H45.227l-4.5-7.02H54.321l-1.029-1.88H67.957l1.037,1.88H72l4.5,7.02H72.864L76.4,29.558h3.215l3.907,7.24h-3.13l1.246,2.26Z" transform="translate(0 0.141)" fill="#fff"/><g transform="translate(2.101 0)"><path d="M29.492-3.979H26.441V-5h3.051Zm-9.153,0H13.22V-5h7.119Zm-13.22,0H0V-5H7.119Z" transform="translate(41.12 24.221)"/><path d="M7.968,21.5,6.024,18.059l1.957-.279,1.944,3.437ZM4.357,15.114,2.413,11.677,4.369,11.4l1.944,3.437ZM.746,8.732-1.2,5.3.758,5.016,2.7,8.453ZM-2.865,2.35-4.81-1.087l1.957-.279L-.909,2.071Z" transform="translate(62.443 15.65)"/><path d="M59.831-3.979H52.882V-5h6.949Zm-13.051,0H39.661V-5H46.78Zm-13.22,0H26.441V-5H33.56Zm-13.22,0H13.22V-5h7.119Zm-13.22,0H0V-5H7.119Z" transform="translate(18.885 37.489)"/><path d="M59.984-3.881l-7.119-.012.007-1.021L59.99-4.9ZM46.763-3.9l-7.119-.012.007-1.021,7.119.012Zm-13.22-.022-7.119-.012.007-1.021,7.119.012Zm-13.22-.022L13.2-3.958l.007-1.021,7.119.012ZM7.1-3.968-.016-3.979-.01-5l7.119.012Z" transform="translate(0.016 10.547)"/><path d="M17.942,38.706l-.88-1.539,1.955-.281.88,1.539ZM15.38,34.223l-1.963-3.434,1.955-.281,1.963,3.434Zm-3.645-6.377L9.773,24.412l1.955-.281,1.963,3.434ZM8.091,21.469,6.128,18.035l1.955-.281,1.963,3.434ZM4.446,15.091,2.483,11.658l1.955-.281L6.4,14.81ZM.8,8.714-1.161,5.28.794,5,2.756,8.433ZM-2.844,2.337-4.806-1.1l1.955-.281L-.889,2.055Z" transform="translate(14.44 1.378)"/></g></g><text transform="translate(106.103 25.825)" fill="#fff" font-size="27" font-family="SegoeUI, Segoe UI" letter-spacing="0.172em"><tspan x="0" y="0">GRIDLOCK</tspan></text><text transform="translate(108.113 36.774)" fill="#fff" font-size="10" font-family="SegoeUI, Segoe UI" letter-spacing="0.467em"><tspan x="0" y="0">TRAFFIC SIMULATOR</tspan></text></g></g></svg>