<svg xmlns="http://www.w3.org/2000/svg" width="332.285" height="219.737" viewBox="0 0 332.285 219.737"><g transform="translate(-1470.371 -2818.092)"><path d="M266.043,213.055l-4.921-12.327H162.981l5.088,12.2H108.324l-5.086-12.2H78.592l-15.543-39.5H86.774L41.114,51.692h-25L0,12.2H24.651L19.567,0,80.086,1.922,84.37,12.2H263.083l16.118,39.5H100.838l45.674,109.54h98.844L231.4,126.28H179.941l-17.9-38.291H216.12l-4.094-10.256h58.346L274.5,87.989h11.96l17.9,38.291H289.895l14.055,34.952h12.792l15.543,39.5H319.832l4.957,12.327Z" transform="translate(1470.371 2818.092)"/><g transform="translate(1489.479 2818.092)"><path d="M117.336.568H105.2V-5h12.138Zm-36.415,0H52.6V-5H80.921Zm-52.6,0H0V-5H28.322Z" transform="translate(163.599 109.844)" fill="#fff"/><path d="M46.029,123.338l-7.736-18.745,7.784-1.521,7.736,18.745ZM31.661,88.526,23.925,69.78,31.71,68.26,39.446,87ZM17.294,53.713,9.558,34.968l7.784-1.521,7.736,18.745ZM2.926,18.9-4.81.155,2.975-1.366,10.711,17.38Z" transform="translate(227.122 81.282)" fill="#fff"/><path d="M238.042.568H210.4V-5h27.647Zm-51.923,0H157.8V-5h28.322Zm-52.6,0H105.2V-5H133.52Zm-52.6,0H52.6V-5H80.921Zm-52.6,0H0V-5H28.322Z" transform="translate(68.136 182.221)" fill="#fff"/><path d="M238.7,1.106l-28.322-.064.026-5.567,28.322.064ZM186.1.987,157.779.923l.027-5.567,28.322.064ZM133.5.869,105.181.8l.027-5.567L133.53-4.7ZM80.9.75,52.582.686l.027-5.568,28.322.064ZM28.306.631-.016.568.01-5l28.322.064Z" transform="translate(3.016 34.258)" fill="#fff"/><path d="M85.7,217.272l-3.5-8.4,7.779-1.535,3.5,8.4ZM75.507,192.82,67.7,174.089l7.779-1.535,7.808,18.731Zm-14.5-34.786L53.2,139.3l7.779-1.535L68.785,156.5Zm-14.5-34.786L38.7,104.516l7.779-1.535,7.808,18.731ZM32,88.461,24.2,69.729l7.779-1.535,7.808,18.731ZM17.5,53.674,9.695,34.943l7.779-1.535,7.808,18.731ZM3,18.888-4.806.156,2.972-1.378l7.808,18.731Z" transform="translate(34.134 2.465)" fill="#fff"/></g></g></svg>