<svg xmlns="http://www.w3.org/2000/svg" width="30.332" height="30.332" viewBox="0 0 30.332 30.332"><path d="M866.276,6110a6.276,6.276,0,0,1-6.276-6.276v-17.78a6.276,6.276,0,0,1,6.276-6.276h17.781a6.275,6.275,0,0,1,6.275,6.276v17.78a6.275,6.275,0,0,1-6.275,6.276Zm-5.23-24.056v17.78a5.236,5.236,0,0,0,5.23,5.23h17.781a5.236,5.236,0,0,0,5.229-5.23v-17.78a5.235,5.235,0,0,0-5.229-5.23H866.276A5.236,5.236,0,0,0,861.045,6085.944Zm15.961,20.695-.811-14.307h-2.056l-.811,14.307H862.85l5.456-14.307h-2.641v1h-1v-1h-2v-2h6.4l2.786-7.3h2.814l-.414,7.3h1.829l-.414-7.3h2.814l2.785,7.3h6.4v2h-2v1h-1v-1h-2.637l5.454,14.307Zm6.566-18.611v-2h-1.906v-1h1.906v-2H885v2h1.9v1H885v2Z" transform="translate(-860 -6079.667)" fill="#fff"/></svg>