<svg xmlns="http://www.w3.org/2000/svg" width="17.814" height="29.901" viewBox="0 0 17.814 29.901"><path d="M0,27.046c0-1.212,2.4-2.3,5.964-2.7.41.553.822,1.1,1.223,1.612a18.965,18.965,0,0,0-3.268.488,7.557,7.557,0,0,0-1.672.6,7.578,7.578,0,0,0,1.672.6,21.155,21.155,0,0,0,4.987.546,21.158,21.158,0,0,0,4.988-.546,7.621,7.621,0,0,0,1.672-.6,7.578,7.578,0,0,0-1.672-.6,18.924,18.924,0,0,0-3.184-.482c.384-.49.8-1.031,1.221-1.608a14.849,14.849,0,0,1,4.227,1.029c1.083.485,1.655,1.058,1.655,1.658,0,1.574-4,2.855-8.907,2.855S0,28.62,0,27.046Zm8.906-1.064a55.39,55.39,0,0,1-4.578-6.74C2.354,15.954,0,11.492,0,8.906a8.907,8.907,0,0,1,17.814,0c0,2.738-2.691,7.674-4.295,10.373a41.491,41.491,0,0,1-4.607,6.7ZM3.188,9.094a5.772,5.772,0,0,0,5.5,6,5.772,5.772,0,0,0,5.5-6,5.773,5.773,0,0,0-5.5-6A5.773,5.773,0,0,0,3.188,9.094Z" fill="#fff"/></svg>