<svg xmlns="http://www.w3.org/2000/svg" width="29" height="30" viewBox="0 0 29 30"><path d="M866,6111a6,6,0,0,1-6-6v-18a6,6,0,0,1,6-6h17a6,6,0,0,1,6,6v18a6,6,0,0,1-6,6Zm-5-24v18a5.007,5.007,0,0,0,5,5h17a5.005,5.005,0,0,0,5-5v-18a5.006,5.006,0,0,0-5-5H866A5.007,5.007,0,0,0,861,6087Zm8.618,17a7.332,7.332,0,0,1-2.593-4.2,11.667,11.667,0,0,1,.187-5.642,8.026,8.026,0,0,1,1.509-3.048l-1.526-2.18a1,1,0,0,1,.7-1.566l8.148-.94a1,1,0,0,1,1.009,1.44l-3.672,7.335a1,1,0,0,1-1.713.125l-1.111-1.587a7.43,7.43,0,0,0-.57,1.663,8.147,8.147,0,0,0,.1,4.21c.67,2.027,2.281,3.017,4.915,3.017.115,0,.232,0,.35-.006,2.764-.087,4.466-1.063,5.205-2.985a7.586,7.586,0,0,0,.241-4.04,5.75,5.75,0,0,0-.923-2.446.713.713,0,0,0,.081.057l1.532-2.58c1.25.742,1.886,2.834,2.1,3.7a11.482,11.482,0,0,1,.061,5.463c-.54,2.1-2.325,5.646-8.207,5.831-.144,0-.287.006-.428.006A8.59,8.59,0,0,1,869.617,6104Z" transform="translate(-859.999 -6081)" fill="#fff"/></svg>