<svg xmlns="http://www.w3.org/2000/svg" width="31" height="31" viewBox="0 0 31 31"><path d="M879.59,6112H866a6,6,0,0,1-6-6v-19a6,6,0,0,1,6-6h19a6,6,0,0,1,6,6v6.117h0v6.083h0v6.8a6,6,0,0,1-6,6Zm5.41-1a5.005,5.005,0,0,0,5-5V6098.9a9.256,9.256,0,0,0-11.372,9,9.177,9.177,0,0,0,.536,3.1Zm-24-24v19a5.005,5.005,0,0,0,5,5h2.594a11.98,11.98,0,0,1,.147-4.373h4.068a14.947,14.947,0,0,1,1.152-4.652L870.41,6099s-.923-3.056,2.617-5.335l4.142,3.473a6.739,6.739,0,0,0-.931,1.121q.449-.538.948-1.039a15.133,15.133,0,0,1,3.838-2.79l-.492-3.486s1.581-2.542,6.1-2.1l.558,3.967c.227-.011.457-.016.687-.016a15.336,15.336,0,0,1,2.12.147V6087a5.005,5.005,0,0,0-5-5H866A5.005,5.005,0,0,0,861,6087Z" transform="translate(-860 -6081)" fill="#fff"/></svg>