<svg xmlns="http://www.w3.org/2000/svg" xmlns:xlink="http://www.w3.org/1999/xlink" width="1920" height="1076" viewBox="0 0 1920 1076"><defs><clipPath id="b"><rect width="1920" height="1076"/></clipPath></defs><g id="a" clip-path="url(#b)"><rect width="1920" height="1076" fill="#253967"/><rect width="1920" height="728" transform="translate(0 348)" fill="none"/><rect width="1920" height="348"/><g transform="translate(-1184.156 -2753.96)"><path d="M256.873,200.728H162.981l5.088,12.2H108.324l-5.086-12.2H78.592l-15.543-39.5H86.774L41.114,51.692h-25L0,12.2H24.651L19.567,0,80.086,1.922,84.37,12.2H266.458l12.742,39.5H100.838l45.674,109.54h94.235l-14.27-34.952H179.941L166.877,87.989h96.644l5.761-.112.046.112h22.85l12.959,38.291H285.084l14.382,34.952h17.277l15.543,39.5H315.717l5.072,12.327-58.422,1.132Z" transform="translate(1470.371 2818.092)" fill="#fff"/><g transform="translate(1489.479 2818.092)"><path d="M117.336.568H105.2V-5h12.138Zm-36.415,0H52.6V-5H80.921Zm-52.6,0H0V-5H28.322Z" transform="translate(163.599 109.844)"/><path d="M46.029,123.338l-7.736-18.745,7.784-1.521,7.736,18.745ZM31.661,88.526,23.925,69.78,31.71,68.26,39.446,87ZM17.294,53.713,9.558,34.968l7.784-1.521,7.736,18.745Z" transform="translate(221.122 82.282)"/><path d="M238.042.568H210.4V-5h27.647Zm-51.923,0H157.8V-5h28.322Zm-52.6,0H105.2V-5H133.52Zm-52.6,0H52.6V-5H80.921Zm-52.6,0H0V-5H28.322Z" transform="translate(68.136 182.221)"/><path d="M238.7,1.106l-28.322-.064.026-5.567,28.322.064ZM186.1.987,157.779.923l.027-5.567,28.322.064ZM133.5.869,105.181.8l.027-5.567L133.53-4.7ZM80.9.75,52.582.686l.027-5.568,28.322.064ZM28.306.631-.016.568.01-5l28.322.064Z" transform="translate(3.016 34.258)"/><path d="M85.7,217.272l-3.5-8.4,7.779-1.535,3.5,8.4ZM75.507,192.82,67.7,174.089l7.779-1.535,7.808,18.731Zm-14.5-34.786L53.2,139.3l7.779-1.535L68.785,156.5Zm-14.5-34.786L38.7,104.516l7.779-1.535,7.808,18.731ZM32,88.461,24.2,69.729l7.779-1.535,7.808,18.731ZM17.5,53.674,9.695,34.943l7.779-1.535,7.808,18.731ZM3,18.888-4.806.156,2.972-1.378l7.808,18.731Z" transform="translate(34.134 2.465)"/></g></g><text transform="translate(719 193)" fill="#fff" font-size="163" font-family="SegoeUI, Segoe UI" letter-spacing="0.172em"><tspan x="0" y="0">GRIDLOCK</tspan></text><text transform="translate(725 269.868)" fill="#fff" font-size="57" font-family="SegoeUI, Segoe UI" letter-spacing="0.464em"><tspan x="0" y="0">TRAFFIC SIMULATOR</tspan></text><g transform="translate(0 -37)"><text transform="translate(960 462.25)" fill="#fff" font-size="57" font-family="SegoeUI, Segoe UI" letter-spacing="0.15em"><tspan x="-208.66" y="0">Select a Map</tspan></text><line y1="2" x2="1451" transform="translate(234.5 486.5)" fill="none" stroke="#fff" stroke-width="3"/></g><rect width="72" height="75"/><rect width="41" height="8" transform="translate(16 30)" fill="#fff"/><rect width="41" height="8" transform="translate(16 17)" fill="#fff"/><rect width="41" height="8" transform="translate(16 43.324)" fill="#fff"/><g transform="translate(-667 -472)"><rect width="497" height="62" rx="10" transform="translate(1379 979)"/><text transform="translate(1612 1020)" fill="#fff" font-size="30" font-family="SegoeUI, Segoe UI" letter-spacing="0.05em"><tspan x="-101.906" y="0">CUSTOM MAP</tspan></text></g><g transform="translate(88)"><g transform="translate(585 716)" fill="#fff" stroke="#707070" stroke-width="1"><rect width="574" height="318" stroke="none"/><rect x="0.5" y="0.5" width="573" height="317" fill="none"/></g><g transform="translate(1223 716)" fill="#fff" stroke="#707070" stroke-width="1"><rect width="286" height="318" stroke="none"/><rect x="0.5" y="0.5" width="285" height="317" fill="none"/></g><g transform="translate(235 716)" fill="#fff" stroke="#707070" stroke-width="1"><rect width="286" height="318" stroke="none"/><rect x="0.5" y="0.5" width="285" height="317" fill="none"/></g><text transform="translate(678 699)" fill="#fff" font-size="69" font-family="SegoeUI, Segoe UI" letter-spacing="0.172em"><tspan x="0" y="0">On Ramp </tspan></text><text transform="translate(133 699)" fill="#fff" font-size="69" font-family="SegoeUI, Segoe UI" letter-spacing="0.172em"><tspan x="0" y="0">On Ramp </tspan></text><text transform="translate(1244 699)" fill="#fff" font-size="69" font-family="SegoeUI, Segoe UI" letter-spacing="0.172em"><tspan x="0" y="0">On Ramp </tspan></text><g transform="translate(112 625)" fill="#253967" stroke="#707070" stroke-width="1"><rect width="118" height="387" stroke="none"/><rect x="0.5" y="0.5" width="117" height="386" fill="none"/></g><g transform="translate(1514 625)" fill="#253967" stroke="#707070" stroke-width="1"><rect width="118" height="387" stroke="none"/><rect x="0.5" y="0.5" width="117" height="386" fill="none"/></g><g transform="translate(131 835)" fill="#fff" stroke="#707070" stroke-width="1"><circle cx="40.5" cy="40.5" r="40.5" stroke="none"/><circle cx="40.5" cy="40.5" r="40" fill="none"/></g><g transform="translate(1533 835)" fill="#fff" stroke="#707070" stroke-width="1"><ellipse cx="40" cy="40.5" rx="40" ry="40.5" stroke="none"/><ellipse cx="40" cy="40.5" rx="39.5" ry="40" fill="none"/></g></g><path d="M0,65.967l.709.71L0,67.387l65.882,65.967,12.472-12.488L24.234,66.677l54.12-54.189L65.882,0Z" transform="translate(299 896.177) rotate(180)" fill="#fff"/></g></svg>