<svg xmlns="http://www.w3.org/2000/svg" xmlns:xlink="http://www.w3.org/1999/xlink" width="1920" height="1076" viewBox="0 0 1920 1076"><defs><filter id="a" x="464" y="144" width="994" height="846" filterUnits="userSpaceOnUse"><feOffset dx="1" dy="3" input="SourceAlpha"/><feGaussianBlur stdDeviation="3" result="b"/><feFlood flood-color="#00408b"/><feComposite operator="in" in2="b"/><feComposite in="SourceGraphic"/></filter><clipPath id="d"><rect width="1920" height="1076"/></clipPath></defs><g id="c" clip-path="url(#d)"><rect width="1018" height="860" rx="30" transform="translate(451 134)" fill="#fff"/><g transform="matrix(1, 0, 0, 1, 0, 0)" filter="url(#a)"><rect width="976" height="828" rx="30" transform="translate(472 150)" fill="#fff"/></g><g transform="translate(495.176 174.676)"><rect width="41" height="8" transform="translate(5.657 0) rotate(45)" fill="#00408b"/><rect width="41" height="8" transform="translate(5.657 0) rotate(45)" fill="#00408b"/><rect width="41" height="8" transform="translate(0 29.315) rotate(-45)" fill="#00408b"/></g><text transform="translate(589 290)" fill="#00408b" font-size="20" font-family="SegoeUI, Segoe UI"><tspan x="37.147" y="22">This szenario demonstrates, how an on-ramp acts as a stationary bottleneck </tspan><tspan x="5.956" y="49">provoking a traffic breakdown on the main road upstream of the on-ramp and free </tspan><tspan x="19.604" y="76">traffic downstream. With the initial settings, upstream propagating stop-and-go </tspan><tspan x="9.423" y="103">waves on the main road are triggered at the on-ramp region! The on-ramp acts as </tspan><tspan x="32.27" y="130">generator of the waves, but any other type of flow-restricting inhomogeneity </tspan><tspan x="27.299" y="157">(&quot;bottleneck&quot;) could do the same. Just drag an obstacle on the road to see the </tspan><tspan x="344.105" y="184">effect.</tspan><tspan x="371" y="211"></tspan><tspan x="102.68" y="238">Now vary the traffic flows of the main road and the on-ramp.</tspan><tspan x="12.411" y="265">At an reduced inflow of 2000 veh./h, free traffic can be sustained for up to 20 min </tspan><tspan x="227.421" y="292">but sooner or later breaks down.</tspan><tspan x="371" y="319"></tspan><tspan x="5.595" y="346">At 1600 veh./h, no breakdown occurs, but an existing jam will not dissolve! This so-</tspan><tspan x="2.909" y="373">called hysteresis is the basis why traffic-control measures to prevent the breakdown </tspan><tspan x="221.522" y="400">have a huge application potential.</tspan><tspan x="371" y="427"></tspan><tspan x="13.896" y="454">On increasing the ramp flow to 800 veh./h, and decreasing the main flow to 1600 </tspan><tspan x="33.397" y="481">veh./h, observe a stationary localized traffic breakdown &quot;pinned&quot; at the ramp </tspan><tspan x="6.542" y="508">region. Only for higher inflows, the upstream front will propagate further upstream </tspan><tspan x="173.642" y="535">giving rise to an extended congested region!</tspan><tspan x="371" y="562"></tspan><tspan x="0.502" y="589">Play with the politeness factor and switching threshold to change the aggressivity of </tspan><tspan x="291.405" y="616">the ramp vehicles.</tspan></text><text transform="translate(747 257)" fill="#00408b" font-size="34" font-family="SegoeUI-Bold, Segoe UI" font-weight="700"><tspan x="0" y="0">Simulation of an On-Ramp</tspan></text></g></svg>