<svg xmlns="http://www.w3.org/2000/svg" xmlns:xlink="http://www.w3.org/1999/xlink" width="1920" height="1076" viewBox="0 0 1920 1076"><defs><clipPath id="b"><rect width="1920" height="1076"/></clipPath></defs><g id="a" clip-path="url(#b)"><rect width="1102" height="787" rx="20" transform="translate(409 152)" fill="#fff"/><g transform="translate(445.934 176.571)"><g transform="translate(980.984 5.868)"><rect width="41" height="8" transform="translate(5.657 0) rotate(45)" fill="#00408b"/><rect width="41" height="8" transform="translate(5.657 0) rotate(45)" fill="#00408b"/><rect width="41" height="8" transform="translate(0 29.315) rotate(-45)" fill="#00408b"/></g><text transform="translate(-0.434 0.429)" fill="#00408b" font-size="30" font-family="SegoeUI, Segoe UI" letter-spacing="0.05em"><tspan x="0" y="32">New Road Configurations</tspan></text><line x2="1015.632" transform="translate(0 55.323)" fill="none" stroke="#00408b" stroke-width="3"/></g><g transform="translate(459.434 842)"><rect width="1003" height="62" rx="10" transform="translate(-0.434)" fill="#00408b"/><text transform="translate(500.566 43)" fill="#fff" font-size="30" font-family="SegoeUI, Segoe UI" letter-spacing="0.05em"><tspan x="-119.959" y="0">ADD NEW ROAD</tspan></text></g><g transform="translate(459 302)" fill="#fff" stroke="#707070" stroke-width="1"><rect width="369" height="48" stroke="none"/><rect x="0.5" y="0.5" width="368" height="47" fill="none"/></g><text transform="translate(459 292)" fill="#00408b" font-size="30" font-family="SegoeUI, Segoe UI" letter-spacing="0.05em"><tspan x="0" y="0">center_xRel</tspan></text><text transform="translate(459 338)" fill="#bababa" font-size="30" font-family="SegoeUI, Segoe UI" letter-spacing="0.05em"><tspan x="0" y="0">50</tspan></text><g transform="translate(0 110)"><g transform="translate(459 302)" fill="#fff" stroke="#707070" stroke-width="1"><rect width="369" height="80" stroke="none"/><rect x="0.5" y="0.5" width="368" height="79" fill="none"/></g><text transform="translate(459 292)" fill="#00408b" font-size="30" font-family="SegoeUI, Segoe UI" letter-spacing="0.05em"><tspan x="0" y="0">center_xPhys</tspan></text><text transform="translate(466 302)" fill="#00408b" font-size="20" font-family="SegoeUI, Segoe UI" letter-spacing="0.02em"><tspan x="0" y="22">center_xRel*refSizePhys*aspectRatio;</tspan></text></g><g transform="translate(0 252)"><g transform="translate(459 302)" fill="#fff" stroke="#707070" stroke-width="1"><rect width="369" height="48" stroke="none"/><rect x="0.5" y="0.5" width="368" height="47" fill="none"/></g><text transform="translate(459 292)" fill="#00408b" font-size="30" font-family="SegoeUI, Segoe UI" letter-spacing="0.05em"><tspan x="0" y="0">Road Name</tspan></text></g><g transform="translate(0 362)"><g transform="translate(459 302)" fill="#fff" stroke="#707070" stroke-width="1"><rect width="369" height="48" stroke="none"/><rect x="0.5" y="0.5" width="368" height="47" fill="none"/></g><text transform="translate(459 292)" fill="#00408b" font-size="30" font-family="SegoeUI, Segoe UI" letter-spacing="0.05em"><tspan x="0" y="0">Road Name</tspan></text></g><g transform="translate(0 472)"><g transform="translate(459 302)" fill="#fff" stroke="#707070" stroke-width="1"><rect width="369" height="48" stroke="none"/><rect x="0.5" y="0.5" width="368" height="47" fill="none"/></g><text transform="translate(459 292)" fill="#00408b" font-size="30" font-family="SegoeUI, Segoe UI" letter-spacing="0.05em"><tspan x="0" y="0">Road Name</tspan></text></g><g transform="translate(899 260)"><g transform="translate(0 42)" fill="#fff" stroke="#707070" stroke-width="1"><rect width="563" height="48" stroke="none"/><rect x="0.5" y="0.5" width="562" height="47" fill="none"/></g><text transform="translate(0 32)" fill="#00408b" font-size="30" font-family="SegoeUI, Segoe UI" letter-spacing="0.05em"><tspan x="0" y="0">Variables</tspan></text></g><g transform="translate(899 370)"><g transform="translate(0 42)" fill="#fff" stroke="#707070" stroke-width="1"><rect width="563" height="156" stroke="none"/><rect x="0.5" y="0.5" width="562" height="155" fill="none"/></g><text transform="translate(0 32)" fill="#00408b" font-size="30" font-family="SegoeUI, Segoe UI" letter-spacing="0.05em"><tspan x="0" y="0">Road X Trajectory </tspan></text></g><g transform="translate(899 590)"><g transform="translate(0 42)" fill="#fff" stroke="#707070" stroke-width="1"><rect width="563" height="163" stroke="none"/><rect x="0.5" y="0.5" width="562" height="162" fill="none"/></g><text transform="translate(0 32)" fill="#00408b" font-size="30" font-family="SegoeUI, Segoe UI" letter-spacing="0.05em"><tspan x="0" y="0">Road Y Trajectory </tspan></text></g></g></svg>