<svg xmlns="http://www.w3.org/2000/svg" xmlns:xlink="http://www.w3.org/1999/xlink" width="1920" height="1076" viewBox="0 0 1920 1076"><defs><filter id="a" x="16" y="792" width="146" height="138" filterUnits="userSpaceOnUse"><feOffset dx="4" dy="3" input="SourceAlpha"/><feGaussianBlur stdDeviation="3" result="b"/><feFlood flood-color="#00408b"/><feComposite operator="in" in2="b"/><feComposite in="SourceGraphic"/></filter><clipPath id="d"><rect width="1920" height="1076"/></clipPath></defs><g id="c" clip-path="url(#d)"><g transform="matrix(0.574, 0.819, -0.819, 0.574, 88.055, 89.901)" fill="#fff"><path d="M 15.20854091644287 8.690483093261719 L 2.337000846862793 8.690483093261719 C 2.030880928039551 8.690483093261719 1.907760858535767 8.458333015441895 1.877310872077942 8.38718318939209 C 1.846860885620117 8.316033363342285 1.763960838317871 8.066673278808594 1.975320935249329 7.845252990722656 L 8.411101341247559 1.103033185005188 C 8.50636100769043 1.003233194351196 8.634800910949707 0.9482731819152832 8.772770881652832 0.9482731819152832 C 8.910740852355957 0.9482731819152832 9.039180755615234 1.003233194351196 9.134450912475586 1.103033185005188 L 15.57022094726562 7.845252990722656 C 15.78158092498779 8.066673278808594 15.69868087768555 8.316033363342285 15.66823101043701 8.38718318939209 C 15.63778114318848 8.458333015441895 15.51466083526611 8.690483093261719 15.20854091644287 8.690483093261719 Z" stroke="none"/><path d="M 8.772770881652832 1.448272705078125 L 2.337000846862793 8.190483093261719 L 15.20854091644287 8.190483093261719 C 15.20854091644287 8.190483093261719 15.20854091644287 8.190483093261719 15.20855140686035 8.190493583679199 L 8.773880958557129 1.448372840881348 C 8.773771286010742 1.448343276977539 8.773350715637207 1.448272705078125 8.772770881652832 1.448272705078125 M 8.772770881652832 0.4482755661010742 C 9.035961151123047 0.4482755661010742 9.299150466918945 0.551447868347168 9.496120452880859 0.7577934265136719 L 15.93190097808838 7.50001335144043 C 16.53934097290039 8.136373519897461 16.08828163146973 9.190483093261719 15.20854091644287 9.190483093261719 L 2.337000846862793 9.190483093261719 C 1.457260131835938 9.190483093261719 1.006200790405273 8.136373519897461 1.613640785217285 7.50001335144043 L 8.049421310424805 0.7577934265136719 C 8.246391296386719 0.551447868347168 8.509580612182617 0.4482755661010742 8.772770881652832 0.4482755661010742 Z" stroke="none" fill="#fff"/></g><path d="M7473.627,97.708c-3.724,1.708-7.632,20.06,7.862,19.572s11.08-17.571,8.367-19.181" transform="translate(-7386.556 3.93)" fill="none" stroke="#fff" stroke-width="3"/><text transform="translate(320 120)" fill="#fff" font-size="30" font-family="SegoeUI, Segoe UI" letter-spacing="0.05em"><tspan x="-60.899" y="0">Controls</tspan></text><g transform="matrix(1, 0, 0, 1, 0, 0)" filter="url(#a)"><g transform="translate(21 798)" fill="none" stroke="#fff" stroke-width="2"><rect width="128" height="120" rx="25" stroke="none"/><rect x="1" y="1" width="126" height="118" rx="24" fill="none"/></g></g><rect width="410" height="1076"/><rect width="41" height="8" transform="translate(24.833 16.676) rotate(45)" fill="#fff"/><rect width="41" height="8" transform="translate(24.833 16.676) rotate(45)" fill="#fff"/><rect width="41" height="8" transform="translate(19.176 45.991) rotate(-45)" fill="#fff"/><text transform="translate(54 127)" fill="#fff" font-size="30" font-family="SegoeUI, Segoe UI" letter-spacing="0.05em"><tspan x="0" y="32">Home</tspan></text><text transform="translate(54 199)" fill="#fff" font-size="30" font-family="SegoeUI, Segoe UI" letter-spacing="0.05em"><tspan x="0" y="32">About</tspan></text><text transform="translate(54 343)" fill="#fff" font-size="30" font-family="SegoeUI, Segoe UI" letter-spacing="0.05em"><tspan x="0" y="32">Licensing </tspan></text><text transform="translate(57 415)" fill="#fff" font-size="30" font-family="SegoeUI, Segoe UI" letter-spacing="0.05em"><tspan x="0" y="32">User Manual</tspan></text><text transform="translate(57 487)" fill="#fff" font-size="30" font-family="SegoeUI, Segoe UI" letter-spacing="0.05em"><tspan x="0" y="32">Developer Manual</tspan></text><text transform="translate(54 271)" fill="#fff" font-size="30" font-family="SegoeUI, Segoe UI" letter-spacing="0.05em"><tspan x="0" y="32">Github</tspan></text></g></svg>